<svg width="20" height="20" viewBox="0 0 24 24" fill="none" xmlns="http://www.w3.org/2000/svg">
<path d="M21 5.97656C17.67 5.64656 14.32 5.47656 10.98 5.47656C9 5.47656 7.02 5.57656 5.04 5.77656L3 5.97656" stroke="#D20832" stroke-width="1.5" stroke-linecap="round" stroke-linejoin="round"/>
<path d="M8.5 4.97L8.72 3.66C8.88 2.71 9 2 10.69 2H13.31C15 2 15.13 2.75 15.28 3.67L15.5 4.97" stroke="#D20832" stroke-width="1.5" stroke-linecap="round" stroke-linejoin="round"/>
<path d="M18.8504 9.14062L18.2004 19.2106C18.0904 20.7806 18.0004 22.0006 15.2104 22.0006H8.79039C6.00039 22.0006 5.91039 20.7806 5.80039 19.2106L5.15039 9.14062" stroke="#D20832" stroke-width="1.5" stroke-linecap="round" stroke-linejoin="round"/>
<path d="M10.3301 16.5H13.6601" stroke="#D20832" stroke-width="1.5" stroke-linecap="round" stroke-linejoin="round"/>
<path d="M9.5 12.5H14.5" stroke="#D20832" stroke-width="1.5" stroke-linecap="round" stroke-linejoin="round"/>
</svg>
