<svg width="80" height="80" viewBox="0 0 80 80" fill="none" xmlns="http://www.w3.org/2000/svg">
<circle cx="40" cy="40" r="40" fill="#DDE1FE"/>
<path d="M39.9988 65.0855C26.1669 65.0855 14.9141 53.8326 14.9141 40.0008C14.9141 26.1689 26.1669 14.916 39.9988 14.916C53.8307 14.916 65.0835 26.1689 65.0835 40.0008C65.0835 53.8326 53.8307 65.0855 39.9988 65.0855Z" fill="#98A3FB"/>
<path d="M39.999 15.5932C53.4567 15.5932 64.4058 26.5424 64.4058 40C64.4058 53.4576 53.4567 64.4068 39.999 64.4068C26.5414 64.4068 15.5923 53.4576 15.5923 40C15.5923 26.5424 26.5414 15.5932 39.999 15.5932ZM39.999 14.2373C25.7712 14.2373 14.2363 25.7722 14.2363 40C14.2363 54.2278 25.7712 65.7627 39.999 65.7627C54.2268 65.7627 65.7617 54.2278 65.7617 40C65.7617 25.7722 54.2268 14.2373 39.999 14.2373Z" fill="#4756D1"/>
<path d="M27.7969 40.0003L35.9325 48.1359L53.5596 30.5088" stroke="white" stroke-width="4" stroke-miterlimit="10"/>
</svg>